<svg width="22" height="23" viewBox="0 0 22 23" fill="none" xmlns="http://www.w3.org/2000/svg">
<path fill-rule="evenodd" clip-rule="evenodd" d="M20.8542 4.3125C20.8542 3.61387 20.5883 2.94304 20.1162 2.44854C19.6432 1.955 19.0016 1.67708 18.3333 1.67708C14.8207 1.67708 7.17933 1.67708 3.66667 1.67708C2.99842 1.67708 2.35675 1.955 1.88375 2.44854C1.41167 2.94304 1.14583 3.61387 1.14583 4.3125V14.8542C1.14583 15.5528 1.41167 16.2236 1.88375 16.7181C2.35675 17.2117 2.99842 17.4896 3.66667 17.4896H7.04825L10.5142 21.1121C10.7827 21.3929 11.2172 21.3929 11.4858 21.1121L14.9517 17.4896H18.3333C19.0016 17.4896 19.6432 17.2117 20.1162 16.7181C20.5883 16.2236 20.8542 15.5528 20.8542 14.8542V4.3125ZM19.4792 4.3125V14.8542C19.4792 15.1723 19.3582 15.4761 19.1437 15.7013C18.9282 15.9256 18.6377 16.0521 18.3333 16.0521H14.6667C14.4842 16.0521 14.3092 16.1278 14.1808 16.2629L11 19.5874L7.81917 16.2629C7.69083 16.1278 7.51575 16.0521 7.33333 16.0521H3.66667C3.36233 16.0521 3.07175 15.9256 2.85633 15.7013C2.64183 15.4761 2.52083 15.1723 2.52083 14.8542V4.3125C2.52083 3.99433 2.64183 3.69054 2.85633 3.46533C3.07175 3.24108 3.36233 3.11458 3.66667 3.11458H18.3333C18.6377 3.11458 18.9282 3.24108 19.1437 3.46533C19.3582 3.69054 19.4792 3.99433 19.4792 4.3125Z" fill="white"/>
<path fill-rule="evenodd" clip-rule="evenodd" d="M5.72917 8.38542H16.2708V6.94792H5.72917V8.38542Z" fill="white"/>
<path fill-rule="evenodd" clip-rule="evenodd" d="M5.72917 12.2188H16.2708V10.7813H5.72917V12.2188Z" fill="white"/>
</svg>
