<svg width="23" height="23" viewBox="0 0 23 23" fill="none" xmlns="http://www.w3.org/2000/svg">
<path d="M16.0838 14.1937C16.6146 13.6476 17.4776 13.6396 18.0191 14.18L22.5995 18.7484C23.1286 19.2797 23.1482 20.1449 22.5699 20.7437L20.8542 22.1399C19.9278 22.9126 18.076 23.2578 15.9127 22.7834C12.9905 22.1427 9.69306 20.1278 6.11898 16.4801C-0.0234114 10.2116 -1.06493 4.93801 0.900872 2.19904L1.9737 0.848992L2.34671 0.411856C2.88312 -0.131616 3.74696 -0.139981 4.28188 0.403139L8.85525 4.96686C9.39271 5.49444 9.4147 6.36855 8.83058 6.9638L8.36024 7.34182L7.18941 8.35674C6.84707 8.76772 7.12279 9.43708 8.07165 10.6126L11.9384 14.4651C13.7369 15.9257 14.3879 16.2642 14.7772 16.0062L16.0838 14.1937Z" fill="#7757FF"/>
</svg>
