<svg width="1000" height="304" viewBox="0 0 1000 304" fill="none" xmlns="http://www.w3.org/2000/svg">
<g clip-path="url(#clip0_1_48)">
<path d="M55.8342 263.638H38.5823V268.384H63.3944V276.657H3.70902V268.384H28.2369V263.638H10.985V240.18H55.8342V263.638ZM56.2606 303.283H10.5586V280.543H56.2748V303.283H56.2606ZM20.6057 295.01H46.2846V288.672H20.6057V295.01ZM21.032 255.508H45.773V248.382H21.032V255.508Z" fill="white"/>
<path d="M85.5775 278.75L80.7316 271.337C87.5385 268.642 92.2565 265.473 95.3545 261.702L82.9485 263.064L81.7405 254.934L99.3619 254.074C99.7172 252.884 99.973 251.622 100.144 250.332H84.3838V241.987H110.418C110.347 259.394 103.639 271.266 85.6059 278.75H85.5775ZM137.859 303.283H92.7113V278.822H137.859V303.283ZM102.915 295.01H127.798V287.023H102.915V295.01ZM137.859 276.585H128.082V261.329H123.236V276.012H113.601V239.177H123.236V252.841H128.082V238.015H137.859V276.585Z" fill="white"/>
<path d="M197.772 251.981H192.428V279.683C195.072 279.468 197.63 279.21 200.131 278.894L200.628 286.522C186.787 288.902 171.894 289.189 159.985 289.189L159.062 280.844L166.124 280.772V251.996H160.852V243.722H197.786V251.996L197.772 251.981ZM182.438 280.256V251.981H176.015V280.543L182.438 280.256ZM214.455 304H204.039V237.944H214.455V304Z" fill="white"/>
<path d="M277.651 265.875L272.592 274.076C265.216 271.811 260.257 267.452 257.4 261.845C254.402 268.183 249.229 273.244 241.498 275.739L236.439 267.466C247.78 263.939 251.915 255.236 251.915 247.177V240.768H262.616V247.177C262.545 254.949 266.538 262.72 277.665 265.889L277.651 265.875ZM292.259 290.837C292.188 299.039 283.491 303.785 269.65 303.713C255.681 303.785 246.97 299.039 247.041 290.837C246.97 282.708 255.667 277.89 269.65 277.962C283.491 277.89 292.188 282.708 292.259 290.837ZM257.329 290.837C257.258 294.293 261.465 295.798 269.664 295.798C277.864 295.798 282.141 294.293 282.141 290.837C282.141 287.382 277.864 285.948 269.664 285.948C261.465 285.948 257.258 287.382 257.329 290.837ZM291.904 276.944H281.63V238.015H291.904V276.944Z" fill="white"/>
<path d="M377.197 250.476H357.871V264.513C369.637 264.484 375.989 264.04 382.825 262.577L383.749 270.85C375.975 272.571 368.344 272.786 353.224 272.872H347.667V242.217H377.183V250.49L377.197 250.476ZM398.386 290.408C398.386 299.039 389.689 304.072 376.132 304C362.375 304.072 353.522 299.039 353.522 290.408C353.522 281.776 362.361 276.958 376.132 276.887C389.689 276.958 398.386 281.919 398.386 290.408ZM363.654 290.408C363.583 294.078 368.003 295.871 376.132 295.799C383.976 295.871 388.395 294.078 388.395 290.408C388.395 286.737 383.976 285.088 376.132 285.088C368.287 285.088 363.583 286.809 363.654 290.408ZM397.888 253.2H406.23V261.545H397.888V275.797H387.472V237.944H397.888V253.2Z" fill="white"/>
<path d="M459.648 255.007C459.577 263.782 452.017 270.119 441.956 270.191C431.824 270.119 424.121 263.782 424.207 255.007C424.136 246.16 431.838 239.751 441.956 239.751C452.074 239.751 459.577 246.16 459.648 255.007ZM478.336 291.914H444.173V295.226H479.899V303.284H434.183V284.429H468.061V281.26H433.97V273.346H478.321V291.914H478.336ZM434.126 255.007C434.126 259.394 437.409 261.846 441.97 261.846C446.532 261.846 449.672 259.394 449.672 255.007C449.672 250.619 446.461 248.239 441.97 248.168C437.48 248.239 434.126 250.548 434.126 255.007ZM478.336 270.836H468.061V237.959H478.336V270.836Z" fill="white"/>
<path d="M532.251 255.795H501.016V247.593H511.717V239.75H521.849V247.593H532.266V255.795H532.251ZM531.257 274.148C531.257 283.496 525.26 290.121 516.847 290.121C508.434 290.121 502.295 283.496 502.295 274.148C502.295 264.799 508.434 258.318 516.847 258.318C525.26 258.318 531.257 264.871 531.257 274.148ZM511.291 274.148C511.291 278.894 513.493 281.346 516.847 281.346C519.988 281.346 522.261 278.894 522.261 274.148C522.261 269.402 519.973 266.807 516.847 266.878C513.493 266.807 511.291 269.473 511.291 274.148ZM557.93 304H548.153V272.771H543.947V301.261H534.397V239.162H543.947V264.484H548.153V237.929H557.93V303.986V304Z" fill="white"/>
<path d="M634.242 271.051H624.039V266.521H609.914V258.678H624.039V253.645H610.567C606.546 263.352 597.408 269.474 582.97 272.5L579.545 264.155C594.125 261.387 600.364 255.623 601.515 248.54H583.325V240.339H612.912C612.912 242.275 612.813 244.124 612.557 245.873H624.039V237.959H634.242V271.051ZM634.242 291.914H600.733V295.154H635.465V303.356H590.544V284.286H623.982V281.26H590.402V273.202H634.257V291.914H634.242Z" fill="white"/>
<path d="M727.522 269.689L722.534 277.89C715.372 275.582 710.554 271.022 707.698 265.373C704.842 271.624 699.825 276.671 692.222 279.109L686.95 270.764C698.148 267.38 702.355 258.748 702.355 250.619V250.475H689.807V242.202H725.319V250.475H712.842V250.69C712.842 258.103 716.907 266.233 727.536 269.689H727.522ZM744.419 302.925H699.072V281.991H709.346V294.651H744.433V302.925H744.419ZM742.927 286.163H732.723V263.064H722.875V254.719H732.723V238.03H742.927V286.163Z" fill="white"/>
<path d="M825.022 278.392H801.063V289.117H790.931V278.392H765.195V270.19H825.022V278.392ZM818.457 302.925H771.959V283.64H782.234V294.651H818.457V302.925ZM817.391 265.502H772.542V240.754H817.391V265.502ZM782.589 257.53H807.33V248.755H782.589V257.53Z" fill="white"/>
<path d="M848.342 292.989L842.999 284.787C859.654 276.829 866.632 267.094 868.095 252.841H846.694V244.783H878.569C878.569 265.144 872.146 281.69 848.328 292.989H848.342ZM898.265 304H887.848V237.944H898.265V304Z" fill="white"/>
<path d="M955.904 252.34H965.965V237.944H976.169V273.489H965.965V260.469H955.975C954.057 267.596 947.349 272.413 939.078 272.413C928.946 272.413 921.471 265.717 921.542 256.44C921.471 247.379 928.96 240.683 939.078 240.683C947.321 240.683 953.943 245.429 955.904 252.34ZM931.22 256.44C931.22 261.043 934.431 263.71 939.064 263.71C943.697 263.71 946.695 261.043 946.695 256.44C946.695 251.838 943.484 249.243 939.064 249.243C934.645 249.243 931.22 251.909 931.22 256.44ZM942.134 281.919H965.951V276.242H976.154V303.298H932.087V276.242H942.134V281.919ZM965.951 294.939V289.834H942.134V294.939H965.951Z" fill="white"/>
<path d="M146.073 1.36214H103.341L37.2465 82.316V1.36214H0V197.438H37.2465V141.318L146.073 1.36214Z" fill="white"/>
<path d="M107.931 146.853H66.1229L107.036 197.438H149.753L107.931 146.853Z" fill="#7757FF"/>
<path d="M226.563 3.64192C174.153 3.64192 131.663 46.5133 131.663 99.3929C131.663 152.272 174.153 195.144 226.563 195.144C278.972 195.144 321.463 152.272 321.463 99.3929C321.463 46.5133 278.972 3.64192 226.563 3.64192ZM226.563 160.961C192.869 160.961 165.542 133.403 165.542 99.3929C165.542 65.3825 192.855 37.8244 226.563 37.8244C260.271 37.8244 287.584 65.3825 287.584 99.3929C287.584 133.403 260.271 160.961 226.563 160.961Z" fill="white"/>
<path d="M408.546 0.501839H383.564H346.317V198.327H383.564H408.546C458.583 198.327 500.86 153.592 500.86 100.64V98.2028C500.86 45.2372 458.583 0.501839 408.546 0.501839ZM467.024 100.626C467.024 134.479 439.696 164.173 408.546 164.173H383.564V34.6269H408.546C439.696 34.6269 467.024 64.3215 467.024 98.1741V100.612V100.626Z" fill="white"/>
<path d="M656.255 39.5163V1.93566L524.322 1.93566V39.5163L656.255 39.5163Z" fill="white"/>
<path d="M656.255 118.19V80.6097L524.322 80.6097V118.19H656.255Z" fill="white"/>
<path d="M656.255 196.864V159.284H524.322V196.864H656.255Z" fill="#7757FF"/>
<path d="M687.547 166.209L756.072 102.647C773.991 85.3553 783.484 74.7307 783.484 59.5608C783.484 42.5412 770.567 31.9022 753.173 31.9022C735.779 31.9022 723.657 43.3298 723.657 61.6828H685.97C685.7 23.9158 713.382 -0.014748 753.698 -0.014748C794.014 -0.014748 821.697 23.3853 821.697 56.8938C821.697 78.7024 811.153 96.7829 771.888 132.686L742.898 161.133V162.194H824.34V195.172H687.817L687.561 166.18L687.547 166.209Z" fill="white"/>
<path d="M845.287 129.503L925.948 2.66692H975.756V128.987H1000V161.162H975.756V195.201H938.069V161.162H845.301V129.518L845.287 129.503ZM938.595 128.973V46.5277H936.748L885.347 127.367V128.958H938.595V128.973Z" fill="white"/>
</g>
<defs>
<clipPath id="clip0_1_48">
<rect width="1000" height="304" fill="white"/>
</clipPath>
</defs>
</svg>
