<svg width="23" height="23" viewBox="0 0 23 23" fill="none" xmlns="http://www.w3.org/2000/svg">
<path d="M20.9022 10.6144V9.26683C20.9022 6.82948 19.9242 4.53866 18.1482 2.81636C17.2763 1.97121 16.2662 1.31297 15.1424 0.855577V0.448452C15.1424 0.2008 14.9355 0 14.6802 0H8.31918C8.06383 0 7.85696 0.2008 7.85696 0.448452V0.855802C6.22306 1.52176 4.82474 2.61489 3.79923 4.03284C2.68668 5.57109 2.09857 7.38098 2.09857 9.26683V10.6143C0.894988 10.9041 0 11.9611 0 13.2176V15.9924C0 17.471 1.23997 18.6739 2.764 18.6739H3.16635C3.38614 19.0409 3.79618 19.2828 4.25099 19.2828C4.94235 19.2828 5.5048 18.7371 5.5048 18.0663V11.1435C5.5048 10.8184 5.37438 10.5129 5.13681 10.2825C4.89929 10.0533 4.58472 9.92705 4.25099 9.92705C3.79687 9.92705 3.38693 10.1687 3.16681 10.5352H3.02301V9.26692C3.02301 7.56646 3.5531 5.93468 4.55592 4.54813C5.43813 3.32842 6.6263 2.37604 8.01225 1.76946C8.23695 2.18009 8.68236 2.46058 9.19421 2.46058H13.8058C14.3178 2.46058 14.7633 2.1796 14.9877 1.76838C15.9195 2.17573 16.7612 2.73995 17.4947 3.45092C19.0958 5.00377 19.9777 7.06922 19.9777 9.26692V10.5352H19.834C19.614 10.1688 19.204 9.92705 18.7498 9.92705C18.4156 9.92705 18.1008 10.0533 17.8625 10.2833C17.6257 10.5131 17.4953 10.8186 17.4953 11.1435V18.0664C17.4953 18.5042 17.7358 18.8875 18.0946 19.1018C17.4053 20.1338 16.2546 20.8147 14.9887 20.9323C14.9109 20.6838 14.771 20.4565 14.5767 20.2686C14.2656 19.9658 13.8513 19.799 13.41 19.799H12.567C11.6574 19.799 10.9174 20.517 10.9174 21.3995C10.9174 21.8276 11.0892 22.2296 11.4002 22.5303C11.7113 22.8332 12.1257 23 12.567 23H13.41C14.1651 23 14.803 22.505 14.9979 21.8319C16.7149 21.6985 18.2681 20.7165 19.0842 19.238C19.4003 19.1522 19.6705 18.948 19.8346 18.674H20.2361C21.7601 18.674 23 17.471 23 15.9924V13.2176C23.0001 11.9613 22.1055 10.9045 20.9022 10.6144ZM3.92156 11.1434C3.92156 11.1208 3.92401 11.0982 3.92869 11.0766C3.96073 10.9301 4.0962 10.8238 4.25094 10.8238C4.33863 10.8238 4.42174 10.8574 4.48392 10.9174C4.54606 10.9777 4.58028 11.0579 4.58028 11.1433V18.0662C4.58028 18.2424 4.43253 18.3857 4.25094 18.3857C4.09602 18.3857 3.96054 18.2795 3.92874 18.1325C3.92401 18.1108 3.92161 18.0885 3.92161 18.0662L3.92156 11.1434ZM2.99712 17.777H2.76395C1.7497 17.777 0.924436 16.9764 0.924436 15.9923V13.2174C0.924436 12.2329 1.7497 11.432 2.76395 11.432H2.99712V17.777ZM14.218 1.16369C14.218 1.38417 14.0331 1.5635 13.8058 1.5635H9.19426C8.96665 1.5635 8.78144 1.38412 8.78144 1.16369V0.89695H14.218V1.16369ZM12.5377 22.1016C12.3551 22.0945 12.1844 22.023 12.054 21.8961C11.9172 21.7638 11.8419 21.5874 11.8419 21.3994C11.8419 21.0211 12.1515 20.7125 12.5377 20.6973V22.1016ZM13.4621 22.1004V20.6983C13.6361 20.7103 13.7981 20.7811 13.9231 20.9027C14.0598 21.035 14.1351 21.2114 14.1351 21.3994C14.1352 21.7703 13.8377 22.0743 13.4621 22.1004ZM19.0793 18.0663H19.0793C19.0793 18.0886 19.0769 18.1109 19.072 18.1333C19.0403 18.2797 18.9049 18.3859 18.7499 18.3859C18.5679 18.3859 18.4199 18.2426 18.4199 18.0664V11.1434C18.4199 11.058 18.4541 10.9778 18.5155 10.9182C18.5785 10.8573 18.6618 10.8239 18.75 10.8239C18.9048 10.8239 19.0402 10.9302 19.0723 11.0766C19.077 11.0983 19.0794 11.1208 19.0794 11.1434V18.0663H19.0793ZM22.0756 15.9923C22.0756 16.9764 21.2504 17.777 20.2361 17.777H20.0037V11.4321H20.2361C21.2504 11.4321 22.0756 12.233 22.0756 13.2175V15.9923Z" fill="white"/>
</svg>
